<svg xmlns="http://www.w3.org/2000/svg" viewBox="0 0 164.72 38.5">
  <title>dolittle_logo_negative</title>
  <path d="M13.71,13.16H8.08a1,1,0,0,0-.84.49L4.43,18.52a1,1,0,0,0,0,1l2.81,4.87a1,1,0,0,0,.84.49h5.63a1,1,0,0,0,.84-.49l2.81-4.87a1,1,0,0,0,0-1l-2.81-4.87A1,1,0,0,0,13.71,13.16Z" fill="#fff"/>
  <path d="M22.56.24a.46.46,0,0,0-.65-.17.58.58,0,0,0-.18.17L17.18,8.12a.83.83,0,0,0,0,.81l5.65,9.78a.59.59,0,0,1,0,.6l-5.71,9.88a.59.59,0,0,1-.52.31H5.31a.82.82,0,0,0-.7.4L.06,37.78a.48.48,0,0,0,.18.65.42.42,0,0,0,.24.07H20.9a2.17,2.17,0,0,0,1.87-1.09l10-17.32a2.14,2.14,0,0,0,0-2.16Z" fill="#fff"/>
  <path d="M65.58,21.4h0a8.66,8.66,0,0,1,17.31,0h0a8.65,8.65,0,0,1-17.3,0Zm13.56,0h0a5,5,0,0,0-4.85-5.14h-.06a4.86,4.86,0,0,0-4.9,4.81v.24h0a5,5,0,0,0,4.86,5.14h.06a4.88,4.88,0,0,0,4.9-4.87.57.57,0,0,0,0-.13Z" fill="#fff"/>
  <path d="M65.58,21.4h0a8.66,8.66,0,0,1,17.31,0h0a8.65,8.65,0,0,1-17.3,0Zm13.56,0h0a5,5,0,0,0-4.85-5.14h-.06a4.86,4.86,0,0,0-4.9,4.81v.24h0a5,5,0,0,0,4.86,5.14h.06a4.88,4.88,0,0,0,4.9-4.87.57.57,0,0,0,0-.13Z" fill="#fff"/>
  <path d="M48.36,14.26a1.1,1.1,0,0,1,1.1-1.1h5.25c5.12,0,8.64,3.55,8.62,8.13h0c0,4.59-3.56,8.13-8.68,8.11H49.4a1.12,1.12,0,0,1-1.1-1.11Zm6.3,12a4.64,4.64,0,0,0,4.93-4.34,4.17,4.17,0,0,0,0-.5v-.08a4.66,4.66,0,0,0-4.4-4.92,4,4,0,0,0-.49,0H51.9v9.81Z" fill="#fff"/>
  <path d="M85.66,14.87a1.78,1.78,0,0,1,1.77-1.79.87.87,0,0,1,.23,0,1.83,1.83,0,0,1,1.58,1.85V26.23H95.8a1.67,1.67,0,0,1,1.67,1.38,1.62,1.62,0,0,1-1.33,1.86l-.29,0h-9.1a1.1,1.1,0,0,1-1.1-1.1h0Z" fill="#fff"/>
  <path d="M100.22,14.86a1.79,1.79,0,1,1,3.58,0l0,13a1.79,1.79,0,0,1-3.58,0Z" fill="#fff"/>
  <path d="M111.44,16.52H108a1.65,1.65,0,0,1,0-3.3h10.46a1.66,1.66,0,1,1,.26,3.31H115V27.86a1.79,1.79,0,0,1-1.92,1.66,1.81,1.81,0,0,1-1.67-1.66Z" fill="#fff"/>
  <path d="M126.52,16.52h-3.44a1.65,1.65,0,1,1,0-3.3h10.47a1.66,1.66,0,1,1,.26,3.31H130.1V27.86a1.79,1.79,0,1,1-3.58,0Z" fill="#fff"/>
  <path d="M137.81,14.85a1.78,1.78,0,0,1,1.78-1.78h.22a1.82,1.82,0,0,1,1.58,1.86v11.3H148a1.68,1.68,0,0,1,1.67,1.37,1.63,1.63,0,0,1-1.34,1.87l-.27,0h-9.1a1.13,1.13,0,0,1-1.11-1.12Z" fill="#fff"/>
  <path d="M152.16,28.37l.05-14.08a1.09,1.09,0,0,1,1.09-1.09h9.64a1.65,1.65,0,0,1,1.68,1.46,1.57,1.57,0,0,1-1.43,1.71h-7.43v3.3h6.12a1.67,1.67,0,0,1,1.68,1.46,1.57,1.57,0,0,1-1.42,1.72h-6.39v3.42H163a1.67,1.67,0,0,1,1.68,1.46,1.57,1.57,0,0,1-1.42,1.72h-10a1.12,1.12,0,0,1-1.12-1.1Z" fill="#fff"/>
  <path d="M152.16,28.37l.05-14.08a1.09,1.09,0,0,1,1.09-1.09h9.64a1.65,1.65,0,0,1,1.68,1.46,1.57,1.57,0,0,1-1.43,1.71h-7.43v3.3h6.12a1.67,1.67,0,0,1,1.68,1.46,1.57,1.57,0,0,1-1.42,1.72h-6.39v3.42H163a1.67,1.67,0,0,1,1.68,1.46,1.57,1.57,0,0,1-1.42,1.72h-10a1.12,1.12,0,0,1-1.12-1.1Z" fill="#fff"/>
</svg>
